<svg width="199" height="43" viewBox="0 0 199 43" fill="none" xmlns="http://www.w3.org/2000/svg">
<path d="M187.749 12.9604C193.012 12.9604 196.461 16.627 196.461 21.5278C196.461 22.3628 196.316 23.1252 196.171 23.8149H183.174C183.465 26.7192 185.897 28.2439 188.62 28.2439C190.762 28.2439 192.359 27.3363 193.484 26.1746L196.098 29.2967C193.811 31.4748 191.451 32.3461 188.402 32.3461C182.303 32.3461 178.273 28.0987 178.273 22.6895C178.273 17.2804 182.23 12.9604 187.749 12.9604ZM187.712 16.9174C185.389 16.9174 183.574 18.2969 183.174 20.6203H191.851V20.584C191.669 18.2969 189.927 16.9174 187.712 16.9174Z" fill="#555B63"/>
<path d="M164.434 13.396H167.193V8.34988H171.767V13.396H176.159V17.1715H171.767V25.4123C171.767 27.1911 172.638 28.0987 174.344 28.0987C174.889 28.0987 175.796 28.0261 176.631 27.4815V31.6201C175.796 32.0557 174.671 32.3461 173.11 32.3461C169.334 32.3461 167.047 30.1316 167.047 26.102V17.1715H164.434V13.396Z" fill="#555B63"/>
<path d="M143.592 13.396H148.311V24.0691C148.311 26.7192 149.872 28.135 152.05 28.135C154.991 28.135 156.298 25.4486 156.298 22.9437V13.396H161.017V31.9105H156.479V29.3693C155.318 31.2933 153.502 32.3461 150.78 32.3461C146.423 32.3461 143.592 29.5145 143.592 24.6136V13.396Z" fill="#555B63"/>
<path d="M128.521 13.396H131.281V8.34988H135.855V13.396H140.247V17.1715H135.855V25.4123C135.855 27.1911 136.726 28.0987 138.432 28.0987C138.977 28.0987 139.884 28.0261 140.719 27.4815V31.6201C139.884 32.0557 138.759 32.3461 137.198 32.3461C133.422 32.3461 131.135 30.1316 131.135 26.102V17.1715H128.521V13.396Z" fill="#555B63"/>
<path d="M120.378 31.9105V13.396H125.097V31.9105H120.378ZM122.701 5.37305C124.19 5.37305 125.424 6.46213 125.424 8.02316C125.424 9.58419 124.19 10.7096 122.701 10.7096C121.14 10.7096 119.979 9.58419 119.979 8.02316C119.979 6.46213 121.14 5.37305 122.701 5.37305Z" fill="#555B63"/>
<path d="M104.875 13.396H107.634V8.34988H112.208V13.396H116.601V17.1715H112.208V25.4123C112.208 27.1911 113.079 28.0987 114.786 28.0987C115.33 28.0987 116.238 28.0261 117.073 27.4815V31.6201C116.238 32.0557 115.112 32.3461 113.551 32.3461C109.776 32.3461 107.489 30.1316 107.489 26.102V17.1715H104.875V13.396Z" fill="#555B63"/>
<path d="M95.6646 32.3461C92.3248 32.3461 89.4568 30.7851 88.041 28.1713L91.2357 25.8116C92.2522 27.4089 93.668 28.5343 95.6646 28.5343C97.4072 28.5343 98.46 27.9172 98.46 26.937C98.46 25.7753 97.4798 25.3034 94.4666 24.2869C90.6911 23.0163 88.6582 21.5278 88.6582 18.4784C88.6582 15.2837 91.7802 12.9604 95.7735 12.9604C98.823 12.9604 101.328 14.4125 102.526 16.627L99.3675 18.914C98.6052 17.6434 97.4435 16.7359 95.7009 16.7359C94.2125 16.7359 93.0871 17.4256 93.0871 18.4421C93.0871 19.4223 94.0673 19.9305 96.9352 20.947C100.457 22.2176 102.889 23.4519 102.889 26.8281C102.889 29.9501 99.9484 32.3461 95.6646 32.3461Z" fill="#555B63"/>
<path d="M67.2363 13.396H71.7742V15.9372C72.9359 14.0131 74.751 12.9604 77.4738 12.9604C81.8301 12.9604 84.6617 15.792 84.6617 20.6929V31.9105H79.9424V21.2374C79.9424 18.5873 78.3813 17.1715 76.2032 17.1715C73.2626 17.1715 71.9557 19.8216 71.9557 22.3628V31.9105H67.2363V13.396Z" fill="#555B63"/>
<path d="M57.1318 31.9105V13.396H61.8511V31.9105H57.1318ZM59.4551 5.37305C60.9436 5.37305 62.1779 6.46213 62.1779 8.02316C62.1779 9.58419 60.9436 10.7096 59.4551 10.7096C57.8941 10.7096 56.7324 9.58419 56.7324 8.02316C56.7324 6.46213 57.8941 5.37305 59.4551 5.37305Z" fill="#555B63"/>
<path fill-rule="evenodd" clip-rule="evenodd" d="M12.273 2.0082C5.53495 5.2734 0.888672 12.1782 0.888672 20.1683C0.888672 31.3069 9.91832 40.3366 21.057 40.3366C29.0468 40.3366 35.9515 35.6906 39.2168 28.9528H21.0573C16.2359 28.9526 12.3218 25.0683 12.2735 20.2583H12.273V20.1683V2.0082ZM40.9466 23.5285C41.1299 22.4357 41.2253 21.3131 41.2253 20.1683C41.2253 9.02965 32.1956 0 21.057 0C19.9123 0 18.7899 0.0953586 17.6973 0.278565V12.0494C18.7324 11.6205 19.8673 11.3838 21.0575 11.3838C25.9091 11.3838 29.842 15.3167 29.842 20.1683C29.842 21.3585 29.6053 22.4934 29.1764 23.5285H40.9466Z" fill="#555B63"/>
</svg>
