<svg width="273" height="44" viewBox="0 0 273 44" fill="none" xmlns="http://www.w3.org/2000/svg">
<path d="M257.667 16.57C259.216 14.7064 261.128 13.7625 263.403 13.7383C264.637 13.7141 265.726 13.9198 266.67 14.3555C267.614 14.7669 268.376 15.3357 268.957 16.0617C269.659 16.9088 270.143 17.9011 270.409 19.0386C270.675 20.1518 270.808 21.3982 270.808 22.7778V33.2693H265.653V23.1771C265.653 22.4994 265.581 21.8581 265.436 21.253C265.315 20.6238 265.097 20.0913 264.782 19.6557C264.467 19.1959 264.044 18.857 263.511 18.6392C263.003 18.4214 262.422 18.3125 261.769 18.3125C260.946 18.3367 260.244 18.5182 259.663 18.857C259.107 19.1959 258.683 19.6315 258.393 20.1639C258.102 20.6722 257.897 21.253 257.776 21.9065C257.679 22.5357 257.63 23.1771 257.63 23.8305V33.2693H252.512V14.1377H257.413L257.667 16.57Z" fill="#555B63"/>
<path d="M239.534 33.5597C236.436 33.5597 234.052 32.6885 232.382 30.9459C230.712 29.1792 229.877 26.7348 229.877 23.6127C229.877 22.1122 230.095 20.7569 230.53 19.5468C230.99 18.3125 231.619 17.2597 232.418 16.3885C233.241 15.5172 234.245 14.8637 235.431 14.4281C236.641 13.9683 238.009 13.7383 239.534 13.7383C241.034 13.7383 242.377 13.9683 243.563 14.4281C244.773 14.8637 245.79 15.5172 246.613 16.3885C247.46 17.2597 248.101 18.3125 248.537 19.5468C248.997 20.7569 249.226 22.1122 249.226 23.6127C249.226 26.759 248.379 29.2034 246.685 30.9459C245.015 32.6885 242.631 33.5597 239.534 33.5597ZM239.534 18.3125C237.96 18.3125 236.799 18.8208 236.048 19.8372C235.298 20.8537 234.923 22.1243 234.923 23.649C234.923 25.198 235.298 26.4807 236.048 27.4972C236.799 28.5136 237.96 29.0219 239.534 29.0219C241.107 29.0219 242.256 28.5136 242.982 27.4972C243.708 26.4807 244.071 25.198 244.071 23.649C244.071 22.1243 243.708 20.8537 242.982 19.8372C242.256 18.8208 241.107 18.3125 239.534 18.3125Z" fill="#555B63"/>
<path d="M223.721 5.24344C224.665 5.24344 225.427 5.52176 226.008 6.07841C226.589 6.63505 226.879 7.37321 226.879 8.29288C226.879 9.26096 226.589 10.0233 226.008 10.58C225.427 11.1124 224.665 11.3786 223.721 11.3786C222.801 11.3786 222.039 11.1124 221.434 10.58C220.853 10.0233 220.562 9.26096 220.562 8.29288C220.562 7.37321 220.853 6.63505 221.434 6.07841C222.039 5.52176 222.801 5.24344 223.721 5.24344ZM226.298 33.2693H221.18V14.1377H226.298V33.2693Z" fill="#555B63"/>
<path d="M213.564 18.6029V26.3354C213.564 27.9812 214.399 28.804 216.069 28.804H217.957V33.2693H215.561C213.019 33.3661 211.192 32.882 210.079 31.8172C208.99 30.7523 208.445 29.1428 208.445 26.9889V18.6029H205.541V14.1376H208.445V8.94632H213.564V14.1376H218.138V18.6029H213.564Z" fill="#555B63"/>
<path d="M198.163 30.9096C197.437 31.8777 196.554 32.5675 195.513 32.9789C194.472 33.3903 193.262 33.5839 191.883 33.5597C190.116 33.5113 188.64 33.0152 187.454 32.0713C186.824 31.5389 186.328 30.9096 185.965 30.1836C185.626 29.4333 185.457 28.5499 185.457 27.5335C185.481 26.4928 185.711 25.5731 186.147 24.7744C186.607 23.9516 187.296 23.2739 188.216 22.7415C188.991 22.33 189.862 22.0396 190.83 21.8702C191.822 21.7008 192.899 21.6161 194.061 21.6161H197.982C198.054 20.4302 197.776 19.5468 197.147 18.966C196.542 18.3609 195.682 18.0463 194.569 18.0221C194.206 18.0221 193.831 18.0463 193.444 18.0947C193.056 18.1431 192.693 18.2399 192.355 18.3851C192.04 18.5303 191.762 18.736 191.52 19.0023C191.302 19.2443 191.157 19.5468 191.084 19.9098H185.82C185.941 18.7481 186.256 17.7801 186.764 17.0056C187.296 16.2069 187.962 15.5656 188.761 15.0816C189.559 14.5975 190.443 14.2587 191.411 14.0651C192.403 13.8473 193.419 13.7383 194.46 13.7383C195.041 13.7383 195.634 13.7746 196.239 13.8473C196.844 13.8957 197.437 14.0167 198.018 14.2103C198.599 14.3797 199.143 14.6217 199.651 14.9363C200.184 15.2268 200.68 15.614 201.14 16.098C201.963 17.0419 202.471 18.131 202.665 19.3653C202.882 20.5754 202.979 21.7613 202.955 22.923V33.2693H198.272L198.163 30.9096ZM197.982 24.8107H194.242C193.879 24.8107 193.468 24.847 193.008 24.9196C192.548 24.9922 192.149 25.1254 191.81 25.319C191.471 25.5126 191.181 25.7667 190.939 26.0813C190.721 26.396 190.612 26.7832 190.612 27.243C190.612 27.6303 190.685 27.9691 190.83 28.2595C190.999 28.5499 191.205 28.792 191.447 28.9856C191.713 29.1792 192.028 29.3365 192.391 29.4575C192.754 29.5543 193.117 29.6027 193.48 29.6027C194.182 29.6269 194.835 29.5059 195.44 29.2397C196.07 28.9735 196.614 28.5983 197.074 28.1143C197.364 27.7271 197.582 27.2914 197.727 26.8074C197.897 26.2992 197.982 25.6336 197.982 24.8107Z" fill="#555B63"/>
<path d="M182.852 17.8406L173.559 28.804H182.852V33.2693H166.879V29.5301L176.1 18.5666H166.879V14.1377H182.852V17.8406Z" fill="#555B63"/>
<path d="M160.723 5.24344C161.667 5.24344 162.429 5.52176 163.01 6.07841C163.591 6.63505 163.881 7.37321 163.881 8.29288C163.881 9.26096 163.591 10.0233 163.01 10.58C162.429 11.1124 161.667 11.3786 160.723 11.3786C159.803 11.3786 159.041 11.1124 158.436 10.58C157.855 10.0233 157.564 9.26096 157.564 8.29288C157.564 7.37321 157.855 6.63505 158.436 6.07841C159.041 5.52176 159.803 5.24344 160.723 5.24344ZM163.3 33.2693H158.182V14.1377H163.3V33.2693Z" fill="#555B63"/>
<path d="M140.817 16.57C142.366 14.7064 144.278 13.7625 146.553 13.7383C147.787 13.7141 148.876 13.9198 149.82 14.3555C150.764 14.7669 151.526 15.3357 152.107 16.0617C152.809 16.9088 153.293 17.9011 153.559 19.0386C153.826 20.1518 153.959 21.3982 153.959 22.7778V33.2693H148.804V23.1771C148.804 22.4994 148.731 21.8581 148.586 21.253C148.465 20.6238 148.247 20.0913 147.932 19.6557C147.618 19.1959 147.194 18.857 146.662 18.6392C146.154 18.4214 145.573 18.3125 144.919 18.3125C144.096 18.3367 143.395 18.5182 142.814 18.857C142.257 19.1959 141.834 19.6315 141.543 20.1639C141.253 20.6722 141.047 21.253 140.926 21.9065C140.829 22.5357 140.781 23.1771 140.781 23.8305V33.2693H135.662V14.1377H140.563L140.817 16.57Z" fill="#555B63"/>
<path d="M126.868 30.9096C126.142 31.8777 125.259 32.5675 124.218 32.9789C123.177 33.3903 121.967 33.5839 120.588 33.5597C118.821 33.5113 117.345 33.0152 116.159 32.0713C115.53 31.5389 115.033 30.9096 114.67 30.1836C114.332 29.4333 114.162 28.5499 114.162 27.5335C114.186 26.4928 114.416 25.5731 114.852 24.7744C115.312 23.9516 116.001 23.2739 116.921 22.7415C117.696 22.33 118.567 22.0396 119.535 21.8702C120.527 21.7008 121.604 21.6161 122.766 21.6161H126.687C126.759 20.4302 126.481 19.5468 125.852 18.966C125.247 18.3609 124.387 18.0463 123.274 18.0221C122.911 18.0221 122.536 18.0463 122.149 18.0947C121.762 18.1431 121.398 18.2399 121.06 18.3851C120.745 18.5303 120.467 18.736 120.225 19.0023C120.007 19.2443 119.862 19.5468 119.789 19.9098H114.525C114.646 18.7481 114.961 17.7801 115.469 17.0056C116.001 16.2069 116.667 15.5656 117.466 15.0816C118.264 14.5975 119.148 14.2587 120.116 14.0651C121.108 13.8473 122.125 13.7383 123.165 13.7383C123.746 13.7383 124.339 13.7746 124.944 13.8473C125.549 13.8957 126.142 14.0167 126.723 14.2103C127.304 14.3797 127.848 14.6217 128.357 14.9363C128.889 15.2268 129.385 15.614 129.845 16.098C130.668 17.0419 131.176 18.131 131.37 19.3653C131.588 20.5754 131.684 21.7613 131.66 22.923V33.2693H126.977L126.868 30.9096ZM126.687 24.8107H122.947C122.584 24.8107 122.173 24.847 121.713 24.9196C121.253 24.9922 120.854 25.1254 120.515 25.319C120.176 25.5126 119.886 25.7667 119.644 26.0813C119.426 26.396 119.317 26.7832 119.317 27.243C119.317 27.6303 119.39 27.9691 119.535 28.2595C119.704 28.5499 119.91 28.792 120.152 28.9856C120.418 29.1792 120.733 29.3365 121.096 29.4575C121.459 29.5543 121.822 29.6027 122.185 29.6027C122.887 29.6269 123.54 29.5059 124.145 29.2397C124.775 28.9735 125.319 28.5983 125.779 28.1143C126.069 27.7271 126.287 27.2914 126.432 26.8074C126.602 26.2992 126.687 25.6336 126.687 24.8107Z" fill="#555B63"/>
<path d="M105.644 31.3089C104.918 32.1318 104.047 32.7126 103.031 33.0515C102.014 33.3903 100.913 33.5597 99.7271 33.5597C98.5412 33.5597 97.3795 33.3782 96.242 33.0152C95.1287 32.6279 94.1606 32.0108 93.3377 31.1637C92.4181 30.1956 91.7767 29.0823 91.4137 27.8238C91.0507 26.5653 90.8691 25.2705 90.8691 23.9394C90.8691 20.7932 91.7404 18.2762 93.483 16.3884C94.2332 15.5656 95.2013 14.9242 96.3872 14.4644C97.5973 14.0045 98.8921 13.7867 100.272 13.8109C101.167 13.7625 102.135 13.9198 103.176 14.2828C104.217 14.6459 105.112 15.2509 105.862 16.098L106.407 14.1376H110.836V32.0713C110.836 32.8457 110.787 33.6081 110.691 34.3584C110.618 35.1328 110.485 35.871 110.291 36.5728C110.098 37.2989 109.807 37.9887 109.42 38.6421C108.984 39.4408 108.452 40.1184 107.823 40.6751C107.218 41.2317 106.54 41.6916 105.79 42.0546C105.039 42.4418 104.241 42.7201 103.394 42.8896C102.547 43.059 101.687 43.1437 100.816 43.1437C99.7029 43.1437 98.638 43.0106 97.6215 42.7443C96.605 42.5023 95.6732 42.0909 94.8262 41.51C94.0033 40.9534 93.3135 40.2394 92.7569 39.3682C92.2245 38.4969 91.8735 37.4562 91.7041 36.2461H97.1495C97.2464 36.827 97.6336 37.3473 98.3112 37.8071C98.9889 38.267 99.8118 38.4969 100.78 38.4969C101.821 38.4969 102.668 38.2912 103.321 37.8797C103.999 37.4683 104.507 36.9238 104.846 36.2461C105.185 35.5685 105.402 34.794 105.499 33.9227C105.596 33.0515 105.644 32.1802 105.644 31.3089ZM100.889 29.0218C101.687 29.0218 102.389 28.8766 102.994 28.5862C103.624 28.2958 104.132 27.9085 104.519 27.4245C104.906 26.9163 105.197 26.3354 105.39 25.682C105.584 25.0043 105.681 24.2904 105.681 23.5401C105.681 22.0396 105.257 20.8053 104.41 19.8372C103.587 18.8449 102.401 18.3367 100.852 18.3125C100.054 18.3125 99.3398 18.4577 98.7106 18.7481C98.1055 19.0385 97.5973 19.4258 97.1859 19.9098C96.7986 20.3938 96.5082 20.9626 96.3146 21.616C96.121 22.2695 96.0242 22.9713 96.0242 23.7216C96.0242 24.5203 96.121 25.2463 96.3146 25.8998C96.5324 26.529 96.847 27.0857 97.2585 27.5697C97.6699 28.0296 98.1781 28.3926 98.7832 28.6588C99.3882 28.9008 100.09 29.0218 100.889 29.0218Z" fill="#555B63"/>
<path d="M82.0352 16.5336C82.8097 15.614 83.6325 14.9242 84.5038 14.4644C85.3993 14.0045 86.4642 13.7746 87.6985 13.7746C88.0131 13.7746 88.3156 13.7867 88.606 13.8109C88.8964 13.8351 89.1627 13.8714 89.4047 13.9198V18.6392C88.848 18.6392 88.2793 18.6513 87.6985 18.6755C87.1418 18.6755 86.6094 18.7239 86.1011 18.8207C85.5929 18.9175 85.0967 19.0749 84.6127 19.2927C84.1529 19.4863 83.7414 19.7767 83.3784 20.1639C82.8218 20.7932 82.4708 21.4708 82.3256 22.1969C82.2046 22.923 82.1441 23.7458 82.1441 24.6655V33.2693H77.0254V14.1377H81.7448L82.0352 16.5336Z" fill="#555B63"/>
<path d="M64.0453 33.5597C60.9474 33.5597 58.5635 32.6885 56.8936 30.9459C55.2236 29.1792 54.3887 26.7348 54.3887 23.6127C54.3887 22.1122 54.6065 20.7569 55.0421 19.5468C55.502 18.3125 56.1312 17.2597 56.9299 16.3885C57.7527 15.5172 58.7571 14.8637 59.943 14.4281C61.1531 13.9683 62.5205 13.7383 64.0453 13.7383C65.5458 13.7383 66.889 13.9683 68.0749 14.4281C69.285 14.8637 70.3015 15.5172 71.1243 16.3885C71.9714 17.2597 72.6127 18.3125 73.0484 19.5468C73.5082 20.7569 73.7381 22.1122 73.7381 23.6127C73.7381 26.759 72.8911 29.2034 71.1969 30.9459C69.527 32.6885 67.1431 33.5597 64.0453 33.5597ZM64.0453 18.3125C62.4721 18.3125 61.3104 18.8208 60.5602 19.8372C59.8099 20.8537 59.4348 22.1243 59.4348 23.649C59.4348 25.198 59.8099 26.4807 60.5602 27.4972C61.3104 28.5136 62.4721 29.0219 64.0453 29.0219C65.6184 29.0219 66.768 28.5136 67.494 27.4972C68.2201 26.4807 68.5831 25.198 68.5831 23.649C68.5831 22.1243 68.2201 20.8537 67.494 19.8372C66.768 18.8208 65.6184 18.3125 64.0453 18.3125Z" fill="#555B63"/>
<path d="M19.3955 4.92739C19.3955 3.43541 18.1799 2.20594 16.7034 2.42055C15.1716 2.64321 13.6698 3.05555 12.2333 3.65058C9.96258 4.59114 7.89936 5.96974 6.16143 7.70767C4.42351 9.44559 3.04491 11.5088 2.10435 13.7795C1.16379 16.0502 0.679687 18.484 0.679686 20.9418C0.679686 23.3996 1.16379 25.8333 2.10435 28.104C3.04491 30.3747 4.42351 32.4379 6.16143 34.1759C7.89936 35.9138 9.96258 37.2924 12.2333 38.233C14.504 39.1735 16.9377 39.6576 19.3955 39.6576L19.3955 30.674C18.1175 30.674 16.8519 30.4223 15.6712 29.9332C14.4904 29.4441 13.4175 28.7272 12.5138 27.8235C11.6101 26.9198 10.8932 25.8469 10.4041 24.6661C9.91503 23.4854 9.66329 22.2198 9.66329 20.9418C9.66329 19.6637 9.91503 18.3982 10.4041 17.2174C10.8932 16.0366 11.6101 14.9638 12.5138 14.06C13.4175 13.1563 14.4904 12.4394 15.6712 11.9504C16.017 11.8071 16.3701 11.6842 16.7286 11.5821C18.1635 11.1732 19.3955 10 19.3955 8.50807L19.3955 4.92739Z" fill="#555B63"/>
<path d="M35.1579 20.9419C36.6499 20.9419 37.8794 22.1575 37.6647 23.634C37.4421 25.1658 37.0297 26.6676 36.4347 28.1041C35.4942 30.3749 34.1156 32.4381 32.3776 34.176C30.6397 35.9139 28.5765 37.2925 26.3058 38.2331C24.0351 39.1736 21.6013 39.6577 19.1435 39.6577L19.1435 30.6741C20.4216 30.6741 21.6871 30.4224 22.8679 29.9333C24.0487 29.4442 25.1215 28.7274 26.0253 27.8236C26.929 26.9199 27.6459 25.847 28.1349 24.6663C28.2782 24.3204 28.4011 23.9674 28.5032 23.6088C28.9121 22.1739 30.0853 20.9419 31.5772 20.9419L35.1579 20.9419Z" fill="#555B63"/>
<path d="M38.3142 2.23441C39.8061 2.23441 41.0356 3.45006 40.821 4.92652C40.5983 6.45835 40.186 7.96013 39.591 9.39665C38.6504 11.6674 37.2718 13.7306 35.5339 15.4685C33.796 17.2064 31.7327 18.585 29.462 19.5256C28.0255 20.1206 26.5237 20.533 24.9919 20.7556C23.5154 20.9702 22.2998 19.7408 22.2998 18.2488L22.2998 14.6681C22.2998 13.1761 23.5318 12.003 24.9667 11.5941C25.3252 11.492 25.6783 11.3691 26.0241 11.2258C27.2049 10.7367 28.2778 10.0199 29.1815 9.11614C30.0852 8.21242 30.8021 7.13955 31.2912 5.95878C31.4344 5.61296 31.5573 5.25987 31.6595 4.90133C32.0683 3.46646 33.2415 2.23441 34.7335 2.23441L38.3142 2.23441Z" fill="#555B63"/>
</svg>
