<svg width="156" height="41" viewBox="0 0 156 41" fill="none" xmlns="http://www.w3.org/2000/svg">
<path d="M138.181 31.9921C136.729 31.1209 135.568 29.9592 134.696 28.507C133.825 27.0549 133.426 25.4576 133.426 23.7151C133.426 22.0088 133.825 20.4115 134.696 18.9594C135.568 17.5073 136.729 16.3456 138.181 15.4743C139.634 14.603 141.231 14.1674 142.973 14.1674C144.68 14.1674 146.277 14.603 147.729 15.4743C149.181 16.3456 150.343 17.5073 151.214 18.9594C152.085 20.4115 152.521 22.0088 152.521 23.7151C152.521 25.4576 152.085 27.0549 151.214 28.507C150.343 29.9592 149.181 31.1209 147.729 31.9921C146.277 32.8634 144.68 33.2627 142.973 33.2627C141.231 33.2627 139.634 32.8634 138.181 31.9921ZM145.478 28.1077C146.241 27.6721 146.858 27.0549 147.33 26.2563C147.765 25.4939 148.02 24.6589 148.02 23.7151C148.02 22.8075 147.765 21.9725 147.33 21.1739C146.858 20.4115 146.241 19.7943 145.478 19.3224C144.68 18.8868 143.845 18.6326 142.937 18.6326C141.993 18.6326 141.158 18.8868 140.396 19.3224C139.597 19.7943 138.98 20.4115 138.544 21.1739C138.109 21.9725 137.891 22.8075 137.891 23.7151C137.891 24.6589 138.109 25.4939 138.544 26.2563C138.98 27.0549 139.597 27.6721 140.396 28.1077C141.158 28.5433 141.993 28.7612 142.937 28.7612C143.845 28.7612 144.68 28.5433 145.478 28.1077Z" fill="#555B63"/>
<path d="M126.802 10.9001C126.294 10.4645 126.076 9.81103 126.076 9.01237C126.076 8.2137 126.294 7.56025 126.802 7.08832C127.274 6.65268 127.928 6.39856 128.799 6.39856C129.634 6.39856 130.287 6.65268 130.796 7.08832C131.267 7.56025 131.522 8.2137 131.522 9.01237C131.522 9.81103 131.267 10.4282 130.759 10.9001C130.251 11.3721 129.598 11.5899 128.799 11.5899C127.928 11.5899 127.274 11.3721 126.802 10.9001ZM126.512 32.7545V14.603H131.013V32.7545H126.512Z" fill="#555B63"/>
<path d="M117.705 7.34244H122.207V32.7545H117.705V31.0119C116.87 31.738 115.963 32.3189 114.946 32.6819C113.93 33.0812 112.877 33.2627 111.788 33.2627C109.936 33.2627 108.339 32.8634 106.96 32.0284C105.58 31.2298 104.491 30.0681 103.765 28.616C103.039 27.1638 102.676 25.5302 102.676 23.7151C102.676 21.8999 103.039 20.2663 103.765 18.8142C104.491 17.362 105.58 16.2367 106.96 15.4017C108.339 14.5667 109.936 14.1311 111.788 14.1311C112.877 14.1311 113.893 14.3489 114.91 14.7482C115.926 15.1476 116.834 15.6921 117.705 16.3819V7.34244ZM115.055 28.2892C115.854 27.8536 116.507 27.2001 116.979 26.4015C117.451 25.6028 117.705 24.6952 117.705 23.6788C117.705 22.154 117.161 20.9197 116.144 19.9396C115.128 18.9957 113.857 18.4874 112.369 18.4874C110.844 18.4874 109.573 18.9957 108.593 19.9759C107.613 20.956 107.141 22.1903 107.141 23.7151C107.141 25.2398 107.613 26.5104 108.593 27.4906C109.573 28.4707 110.844 28.9427 112.369 28.9427C113.349 28.9427 114.256 28.7249 115.055 28.2892Z" fill="#555B63"/>
<path d="M95.4214 14.603H99.9229V32.7545H95.4214V31.2297C94.7679 31.8469 94.0419 32.3188 93.2432 32.6819C92.4445 33.0449 91.5733 33.2264 90.702 33.2264C89.6129 33.2264 88.5238 33.0086 87.4347 32.5729C86.3456 32.1373 85.4018 31.3023 84.6031 30.1406C83.8044 28.979 83.4414 27.4179 83.4414 25.4576V14.603H87.943V25.4576C87.943 26.8371 88.306 27.8173 89.0684 28.3981C89.8307 28.979 90.7383 29.2694 91.7548 29.2694C92.7713 29.2694 93.6062 28.9427 94.3323 28.2166C95.0583 27.4905 95.4214 26.3651 95.4214 24.7678V14.603Z" fill="#555B63"/>
<path d="M77.4187 28.2529C77.7817 28.5796 78.3989 28.7249 79.2702 28.7249C79.7784 28.7249 80.3229 28.6886 80.9401 28.6159V32.7545C79.7784 32.8997 78.8345 32.936 78.1085 32.936C76.1481 32.936 74.696 32.5004 73.7521 31.6291C72.8082 30.7578 72.3363 29.1605 72.3363 26.8371V18.6326H68.9238V14.603H72.3363V10.1378L76.8379 8.61304V14.603H80.8675V18.6326H76.8379V26.5467C76.8379 27.3816 77.0194 27.9625 77.4187 28.2529Z" fill="#555B63"/>
<path d="M58.4111 20.8471C58.9919 21.1012 59.8995 21.3554 61.1338 21.6095C62.5133 21.8999 63.7113 22.2266 64.6552 22.5897C65.599 22.9527 66.3977 23.5335 67.0875 24.3322C67.7772 25.1309 68.1402 26.1836 68.1402 27.4905C68.1402 28.6885 67.7772 29.705 67.0511 30.5763C66.3251 31.4476 65.3812 32.1373 64.2195 32.573C63.0215 33.0086 61.7146 33.2264 60.3351 33.2264C58.4111 33.2264 56.7774 32.8634 55.3979 32.1373C54.0184 31.4113 53.0382 30.3948 52.3848 29.0153L56.0877 27.0912C56.7411 28.7612 58.1569 29.5961 60.3351 29.5961C61.279 29.5961 62.0776 29.4146 62.7674 29.0516C63.4209 28.6885 63.7839 28.1803 63.7839 27.4905C63.7839 26.9097 63.4572 26.5104 62.84 26.2199C62.2229 25.9295 61.2427 25.6391 59.8632 25.2761C58.4111 24.9493 57.2494 24.6226 56.3781 24.2596C55.4705 23.9329 54.7082 23.4246 54.0547 22.6986C53.4012 21.9725 53.0745 21.0286 53.0745 19.8306C53.0745 18.6689 53.4012 17.6888 54.0547 16.8175C54.7082 15.9462 55.5794 15.2928 56.7048 14.8208C57.7939 14.3852 59.0282 14.1311 60.3714 14.1311C61.9324 14.1311 63.3482 14.4578 64.5825 15.1113C65.8168 15.7647 66.797 16.7086 67.4868 17.9066L63.8202 19.758C63.1667 18.4148 62.0413 17.7251 60.3714 17.7251C59.5001 17.7251 58.8467 17.9066 58.3384 18.2696C57.8302 18.6326 57.5761 19.1046 57.5761 19.6854C57.5761 20.1937 57.8302 20.593 58.4111 20.8471Z" fill="#555B63"/>
<mask id="mask0_2422_9144" style="mask-type:alpha" maskUnits="userSpaceOnUse" x="0" y="0" width="42" height="41">
<circle cx="21.1507" cy="20.1683" r="20.1683" fill="#D9D9D9"/>
</mask>
<g mask="url(#mask0_2422_9144)">
<rect x="-4.38867" y="25.3609" width="21.0635" height="21.0635" rx="2.21667" transform="rotate(-15 -4.38867 25.3609)" fill="#555B63"/>
<rect x="20.8906" y="25.3609" width="21.0635" height="21.0635" rx="2.21667" transform="rotate(-15 20.8906 25.3609)" fill="#555B63"/>
<rect x="20.8906" y="0.0813904" width="21.0635" height="21.0635" rx="2.21667" transform="rotate(-15 20.8906 0.0813904)" fill="#555B63"/>
<rect x="-4.38867" y="0.0813904" width="21.0635" height="21.0635" rx="2.21667" transform="rotate(-15 -4.38867 0.0813904)" fill="#555B63"/>
</g>
</svg>
