<svg width="199" height="48" viewBox="0 0 199 48" fill="none" xmlns="http://www.w3.org/2000/svg">
<path d="M187.187 36.4691C185.125 36.4691 183.317 36.0311 181.763 35.1552C180.209 34.2511 179.008 32.9938 178.16 31.3833C177.312 29.7728 176.889 27.8797 176.889 25.7041C176.889 23.5568 177.312 21.6779 178.16 20.0674C179.008 18.4286 180.209 17.1572 181.763 16.2531C183.317 15.3207 185.125 14.8545 187.187 14.8545C189.278 14.8545 191.087 15.3207 192.612 16.2531C194.166 17.1854 195.367 18.471 196.215 20.1098C197.062 21.7203 197.486 23.5709 197.486 25.6618C197.486 25.9726 197.472 26.2834 197.444 26.5942C197.444 26.8767 197.415 27.1169 197.359 27.3146H181.424V23.1612H193.163L192.316 25.1532C192.316 23.4014 191.892 21.9746 191.044 20.8726C190.225 19.7707 188.939 19.2198 187.187 19.2198C185.662 19.2198 184.433 19.7001 183.5 20.6607C182.568 21.5931 182.102 22.8505 182.102 24.4327V26.6789C182.102 28.3459 182.568 29.6598 183.5 30.6204C184.461 31.5528 185.761 32.019 187.399 32.019C188.84 32.019 189.97 31.7223 190.79 31.129C191.609 30.5356 192.316 29.801 192.909 28.9251L196.766 31.129C195.833 32.8525 194.562 34.1805 192.951 35.1129C191.369 36.017 189.448 36.4691 187.187 36.4691Z" fill="#555B63"/>
<path d="M168.077 15.3207L169.476 21.0422V36.0452H163.924V15.3207H168.077ZM168.332 23.8817L167.314 23.4155V19.1774L167.696 18.7112C168.007 18.2026 168.473 17.6516 169.094 17.0583C169.744 16.465 170.479 15.9564 171.298 15.5326C172.146 15.0805 173.022 14.8545 173.926 14.8545C174.378 14.8545 174.788 14.8827 175.155 14.9392C175.522 14.9957 175.805 15.0946 176.003 15.2359V20.2793H174.646C172.81 20.2793 171.397 20.576 170.408 21.1693C169.419 21.7344 168.727 22.6385 168.332 23.8817Z" fill="#555B63"/>
<path d="M147.362 36.5538C145.808 36.5538 144.565 36.3137 143.633 35.8333C142.7 35.353 141.98 34.7173 141.471 33.9262C140.991 33.1068 140.666 32.1744 140.496 31.129C140.327 30.0836 140.242 28.9958 140.242 27.8656V15.3206H145.794V27.908C145.794 29.1794 146.063 30.0271 146.599 30.4509C147.165 30.8747 147.828 31.0866 148.591 31.0866C149.298 31.0866 150.004 30.9594 150.71 30.7052C151.417 30.4509 152.081 30.0836 152.702 29.6032C153.352 29.0947 153.889 28.5154 154.313 27.8656L154.991 30.7899H153.635V15.3206H159.187V36.0452H155.033L153.889 32.1038L155.669 32.1461C154.963 32.9655 154.157 33.7143 153.253 34.3924C152.377 35.0705 151.431 35.6073 150.414 36.0029C149.425 36.3702 148.408 36.5538 147.362 36.5538Z" fill="#555B63"/>
<path d="M132.921 36.4267C130.802 36.4267 129.121 35.8757 127.877 34.7738C126.662 33.6436 126.055 31.8495 126.055 29.3913V15.5749L125.97 15.3207L127.115 10.4468H131.607V28.5013C131.607 29.4055 131.819 30.0694 132.243 30.4933C132.695 30.8888 133.26 31.0866 133.938 31.0866C134.39 31.0866 134.8 31.0583 135.167 31.0018C135.534 30.9171 135.859 30.8323 136.142 30.7476V35.9181C135.69 36.0876 135.209 36.2148 134.701 36.2995C134.192 36.3843 133.599 36.4267 132.921 36.4267ZM122.834 20.4488V15.3207H136.142V20.4488H122.834Z" fill="#555B63"/>
<path d="M113.349 14.8545C114.762 14.8545 115.892 15.0946 116.739 15.5749C117.615 16.0553 118.265 16.7051 118.689 17.5245C119.141 18.3439 119.438 19.2763 119.579 20.3217C119.72 21.3388 119.791 22.3984 119.791 23.5003V36.0452H114.239V23.4579C114.239 22.1865 113.985 21.3388 113.476 20.915C112.996 20.4912 112.374 20.2793 111.611 20.2793C110.905 20.2793 110.184 20.4206 109.45 20.7031C108.715 20.9574 108.023 21.3388 107.373 21.8474C106.751 22.3277 106.215 22.8787 105.763 23.5003L105.042 20.6184H106.441V36.0452H100.889V15.3207H105.042L106.186 19.3045L104.406 19.2198C105.141 18.3721 105.974 17.6234 106.907 16.9735C107.868 16.3237 108.885 15.8151 109.958 15.4478C111.032 15.0522 112.162 14.8545 113.349 14.8545Z" fill="#555B63"/>
<path d="M87.1952 36.4691C85.1326 36.4691 83.3244 36.0311 81.7704 35.1552C80.2164 34.2511 79.0156 32.9938 78.1679 31.3833C77.3203 29.7728 76.8965 27.8797 76.8965 25.7041C76.8965 23.5568 77.3203 21.6779 78.1679 20.0674C79.0156 18.4286 80.2164 17.1572 81.7704 16.2531C83.3244 15.3207 85.1326 14.8545 87.1952 14.8545C89.286 14.8545 91.0943 15.3207 92.62 16.2531C94.174 17.1854 95.3749 18.471 96.2225 20.1098C97.0701 21.7203 97.4939 23.5709 97.4939 25.6618C97.4939 25.9726 97.4798 26.2834 97.4515 26.5942C97.4515 26.8767 97.4233 27.1169 97.3668 27.3146H81.4313V23.1612H93.171L92.3234 25.1532C92.3234 23.4014 91.8996 21.9746 91.0519 20.8726C90.2326 19.7707 88.947 19.2198 87.1952 19.2198C85.6695 19.2198 84.4404 19.7001 83.508 20.6607C82.5756 21.5931 82.1094 22.8505 82.1094 24.4327V26.6789C82.1094 28.3459 82.5756 29.6598 83.508 30.6204C84.4687 31.5528 85.7684 32.019 87.4071 32.019C88.8481 32.019 89.9783 31.7223 90.7976 31.129C91.617 30.5356 92.3234 29.801 92.9167 28.9251L96.7734 31.129C95.841 32.8525 94.5696 34.1805 92.9591 35.1129C91.3769 36.017 89.4556 36.4691 87.1952 36.4691Z" fill="#555B63"/>
<path d="M76.0465 15.3206L68.4602 36.0452H63.1201L55.1523 15.3206H61.001L66.4258 31.1714H65.112L70.3249 15.3206H76.0465Z" fill="#555B63"/>
<path fill-rule="evenodd" clip-rule="evenodd" d="M15.2685 3.40274C14.5462 3.40274 13.9607 3.98825 13.9607 4.71051V17.1343H13.96C6.37633 17.1343 0.228516 23.2821 0.228516 30.8658C0.228516 38.4495 6.37634 44.5973 13.9601 44.5973H26.3838C27.1061 44.5973 27.6916 44.0118 27.6916 43.2896V30.8658H27.6922C35.2759 30.8658 41.4238 24.718 41.4238 17.1343C41.4238 9.55055 35.276 3.40274 27.6922 3.40274H15.2685ZM27.6916 30.8658V18.442C27.6916 17.7198 27.106 17.1343 26.3838 17.1343H13.9607V29.558C13.9607 30.2803 14.5462 30.8658 15.2685 30.8658H27.6916Z" fill="#555B63"/>
<path d="M15.1213 3.40274C14.4805 3.40274 13.9609 3.92227 13.9609 4.56315L13.9609 17.1343H26.532C27.1729 17.1343 27.6925 17.6538 27.6925 18.2947L27.6925 30.8658C35.2762 30.8658 41.424 24.718 41.424 17.1343C41.424 9.55055 35.2762 3.40274 27.6925 3.40274H15.1213Z" fill="#555B63"/>
</svg>
