<svg width="213" height="45" viewBox="0 0 213 45" fill="none" xmlns="http://www.w3.org/2000/svg">
<path d="M210.059 21.8186L205.031 22.1279C204.946 21.6982 204.761 21.3115 204.477 20.9677C204.194 20.6153 203.82 20.336 203.356 20.1297C202.9 19.9149 202.354 19.8075 201.718 19.8075C200.867 19.8075 200.15 19.9879 199.565 20.3489C198.981 20.7013 198.689 21.174 198.689 21.767C198.689 22.2397 198.878 22.6393 199.256 22.9659C199.634 23.2925 200.283 23.5546 201.203 23.7523L204.787 24.4742C206.712 24.8696 208.147 25.5056 209.092 26.3822C210.038 27.2588 210.51 28.4105 210.51 29.8372C210.51 31.1349 210.128 32.2737 209.363 33.2535C208.607 34.2332 207.567 34.9981 206.243 35.5482C204.928 36.0896 203.411 36.3603 201.693 36.3603C199.071 36.3603 196.983 35.8146 195.427 34.7231C193.88 33.623 192.973 32.1276 192.707 30.2368L198.109 29.9532C198.272 30.7525 198.667 31.3627 199.295 31.7838C199.922 32.1963 200.726 32.4026 201.705 32.4026C202.668 32.4026 203.441 32.2178 204.026 31.8483C204.619 31.4701 204.92 30.9845 204.928 30.3915C204.92 29.893 204.709 29.4848 204.297 29.1668C203.884 28.8402 203.248 28.591 202.389 28.4191L198.959 27.7358C197.026 27.3491 195.586 26.6787 194.641 25.7247C193.704 24.7707 193.236 23.5546 193.236 22.0764C193.236 20.8044 193.579 19.7086 194.267 18.789C194.963 17.8694 195.939 17.1604 197.193 16.6619C198.457 16.1634 199.935 15.9142 201.628 15.9142C204.129 15.9142 206.097 16.4427 207.532 17.4998C208.976 18.557 209.819 19.9965 210.059 21.8186Z" fill="#555B63"/>
<path d="M189.672 21.8186L184.645 22.1279C184.559 21.6982 184.374 21.3115 184.09 20.9677C183.807 20.6153 183.433 20.336 182.969 20.1297C182.513 19.9149 181.968 19.8075 181.332 19.8075C180.481 19.8075 179.763 19.9879 179.179 20.3489C178.594 20.7013 178.302 21.174 178.302 21.767C178.302 22.2397 178.491 22.6393 178.869 22.9659C179.247 23.2925 179.896 23.5546 180.816 23.7523L184.4 24.4742C186.325 24.8696 187.76 25.5056 188.706 26.3822C189.651 27.2588 190.124 28.4105 190.124 29.8372C190.124 31.1349 189.741 32.2737 188.976 33.2535C188.22 34.2332 187.18 34.9981 185.857 35.5482C184.542 36.0896 183.025 36.3603 181.306 36.3603C178.684 36.3603 176.596 35.8146 175.04 34.7231C173.493 33.623 172.587 32.1276 172.32 30.2368L177.722 29.9532C177.885 30.7525 178.281 31.3627 178.908 31.7838C179.535 32.1963 180.339 32.4026 181.319 32.4026C182.281 32.4026 183.055 32.2178 183.639 31.8483C184.232 31.4701 184.533 30.9845 184.542 30.3915C184.533 29.893 184.322 29.4848 183.91 29.1668C183.497 28.8402 182.861 28.591 182.002 28.4191L178.573 27.7358C176.639 27.3491 175.199 26.6787 174.254 25.7247C173.317 24.7707 172.849 23.5546 172.849 22.0764C172.849 20.8044 173.193 19.7086 173.88 18.789C174.576 17.8694 175.552 17.1604 176.807 16.6619C178.07 16.1634 179.548 15.9142 181.241 15.9142C183.742 15.9142 185.71 16.4427 187.146 17.4998C188.59 18.557 189.432 19.9965 189.672 21.8186Z" fill="#555B63"/>
<path d="M160.525 36.3603C158.488 36.3603 156.734 35.9478 155.265 35.1227C153.804 34.2891 152.678 33.1116 151.887 31.5904C151.097 30.0606 150.701 28.2515 150.701 26.163C150.701 24.1262 151.097 22.3385 151.887 20.8001C152.678 19.2617 153.791 18.0628 155.226 17.2033C156.67 16.3439 158.363 15.9142 160.305 15.9142C161.612 15.9142 162.828 16.1247 163.954 16.5459C165.088 16.9584 166.077 17.5815 166.919 18.4152C167.77 19.2488 168.432 20.2973 168.904 21.5607C169.377 22.8155 169.613 24.2852 169.613 25.9697V27.478H152.893V24.0746H164.444C164.444 23.2839 164.272 22.5835 163.928 21.9733C163.584 21.363 163.107 20.8861 162.497 20.5423C161.895 20.1899 161.195 20.0137 160.396 20.0137C159.562 20.0137 158.823 20.2071 158.178 20.5938C157.542 20.972 157.044 21.4834 156.683 22.1279C156.322 22.7639 156.137 23.473 156.129 24.2551V27.4909C156.129 28.4706 156.309 29.3172 156.67 30.0305C157.04 30.7439 157.56 31.2939 158.23 31.6807C158.9 32.0674 159.695 32.2608 160.615 32.2608C161.225 32.2608 161.784 32.1749 162.291 32.003C162.798 31.8311 163.232 31.5732 163.593 31.2295C163.954 30.8857 164.229 30.4646 164.418 29.9661L169.497 30.3013C169.239 31.5217 168.711 32.5874 167.912 33.4984C167.121 34.4008 166.098 35.1056 164.843 35.6126C163.597 36.1111 162.158 36.3603 160.525 36.3603Z" fill="#555B63"/>
<path d="M134.41 24.5258V35.9736H128.918V16.172H134.152V19.6656H134.384C134.822 18.514 135.557 17.603 136.589 16.9326C137.62 16.2536 138.87 15.9142 140.34 15.9142C141.715 15.9142 142.914 16.215 143.937 16.8166C144.959 17.4182 145.754 18.2776 146.322 19.3949C146.889 20.5036 147.173 21.8271 147.173 23.3655V35.9736H141.681V24.3453C141.689 23.1335 141.38 22.1881 140.753 21.5092C140.125 20.8216 139.261 20.4778 138.161 20.4778C137.422 20.4778 136.769 20.6368 136.202 20.9548C135.643 21.2728 135.205 21.7369 134.887 22.3471C134.577 22.9487 134.418 23.675 134.41 24.5258Z" fill="#555B63"/>
<path d="M119.027 35.9736V16.172H124.518V35.9736H119.027ZM121.785 13.6195C120.969 13.6195 120.268 13.3487 119.684 12.8073C119.108 12.2572 118.82 11.5998 118.82 10.8349C118.82 10.0786 119.108 9.42967 119.684 8.88822C120.268 8.33818 120.969 8.06316 121.785 8.06316C122.602 8.06316 123.298 8.33818 123.874 8.88822C124.458 9.42967 124.75 10.0786 124.75 10.8349C124.75 11.5998 124.458 12.2572 123.874 12.8073C123.298 13.3487 122.602 13.6195 121.785 13.6195Z" fill="#555B63"/>
<path d="M115.118 21.8186L110.09 22.1279C110.004 21.6982 109.819 21.3115 109.536 20.9677C109.252 20.6153 108.878 20.336 108.414 20.1297C107.959 19.9149 107.413 19.8075 106.777 19.8075C105.926 19.8075 105.208 19.9879 104.624 20.3489C104.04 20.7013 103.747 21.174 103.747 21.767C103.747 22.2397 103.936 22.6393 104.315 22.9659C104.693 23.2925 105.342 23.5546 106.261 23.7523L109.845 24.4742C111.77 24.8696 113.206 25.5056 114.151 26.3822C115.096 27.2588 115.569 28.4105 115.569 29.8372C115.569 31.1349 115.187 32.2737 114.422 33.2535C113.665 34.2332 112.625 34.9981 111.302 35.5482C109.987 36.0896 108.47 36.3603 106.751 36.3603C104.13 36.3603 102.041 35.8146 100.486 34.7231C98.9388 33.623 98.0321 32.1276 97.7656 30.2368L103.167 29.9532C103.331 30.7525 103.726 31.3627 104.353 31.7838C104.981 32.1963 105.784 32.4026 106.764 32.4026C107.727 32.4026 108.5 32.2178 109.085 31.8483C109.678 31.4701 109.978 30.9845 109.987 30.3915C109.978 29.893 109.768 29.4848 109.355 29.1668C108.943 28.8402 108.307 28.591 107.447 28.4191L104.018 27.7358C102.084 27.3491 100.645 26.6787 99.6994 25.7247C98.7626 24.7707 98.2942 23.5546 98.2942 22.0764C98.2942 20.8044 98.638 19.7086 99.3255 18.789C100.022 17.8694 100.997 17.1604 102.252 16.6619C103.515 16.1634 104.994 15.9142 106.687 15.9142C109.188 15.9142 111.156 16.4427 112.591 17.4998C114.035 18.557 114.877 19.9965 115.118 21.8186Z" fill="#555B63"/>
<path d="M88.7569 27.5425V16.172H94.2487V35.9736H88.976V32.3768H88.7698C88.3229 33.5371 87.5794 34.4696 86.5395 35.1743C85.5082 35.8791 84.2491 36.2314 82.7623 36.2314C81.4387 36.2314 80.2742 35.9306 79.2686 35.329C78.2631 34.7274 77.4767 33.8723 76.9094 32.7636C76.3508 31.6549 76.0672 30.3271 76.0586 28.7801V16.172H81.5504V27.8003C81.559 28.9691 81.8727 29.893 82.4915 30.572C83.1103 31.251 83.9397 31.5904 84.9796 31.5904C85.6414 31.5904 86.2602 31.44 86.836 31.1392C87.4119 30.8298 87.876 30.3743 88.2283 29.7727C88.5893 29.1711 88.7655 28.4277 88.7569 27.5425Z" fill="#555B63"/>
<path d="M53.082 35.9736V9.57149H58.5739V19.4981H58.7415C58.9821 18.9652 59.3302 18.4238 59.7857 17.8737C60.2498 17.3151 60.8514 16.851 61.5905 16.4814C62.3382 16.1033 63.2664 15.9142 64.3751 15.9142C65.819 15.9142 67.1511 16.2923 68.3715 17.0487C69.592 17.7964 70.5674 18.9265 71.298 20.4392C72.0285 21.9432 72.3937 23.8297 72.3937 26.0986C72.3937 28.3074 72.0371 30.1724 71.3237 31.6936C70.619 33.2062 69.6564 34.3536 68.436 35.1357C67.2242 35.9092 65.8663 36.2959 64.3622 36.2959C63.2965 36.2959 62.3898 36.1197 61.6421 35.7673C60.903 35.415 60.2971 34.9724 59.8244 34.4395C59.3517 33.8981 58.9907 33.3523 58.7415 32.8023H58.4965V35.9736H53.082ZM58.4579 26.0728C58.4579 27.2503 58.6211 28.2773 58.9477 29.1539C59.2743 30.0306 59.747 30.7138 60.3658 31.2037C60.9846 31.685 61.7366 31.9256 62.6219 31.9256C63.5157 31.9256 64.272 31.6807 64.8908 31.1908C65.5096 30.6923 65.978 30.0048 66.296 29.1281C66.6226 28.2429 66.7859 27.2245 66.7859 26.0728C66.7859 24.9298 66.6269 23.9242 66.3089 23.0562C65.9909 22.1881 65.5225 21.5092 64.9037 21.0193C64.2849 20.5294 63.5243 20.2845 62.6219 20.2845C61.728 20.2845 60.9717 20.5208 60.3529 20.9935C59.7427 21.4662 59.2743 22.1366 58.9477 23.0046C58.6211 23.8726 58.4579 24.8954 58.4579 26.0728Z" fill="#555B63"/>
<path fill-rule="evenodd" clip-rule="evenodd" d="M21.7208 16.8805L27.6615 22.8212L22.0051 28.4776L16.0644 22.537L21.7208 16.8805ZM15.63 10.7897L11.9054 7.06508C11.6929 6.85263 11.6929 6.50817 11.9054 6.29572L17.2269 0.974214C17.4394 0.761759 17.7838 0.761759 17.9963 0.974213L36.1887 19.1667C38.2071 21.185 38.2071 24.4574 36.1887 26.4757L28.0959 34.5685L31.8205 38.2931C32.033 38.5055 32.033 38.85 31.8205 39.0624L26.499 44.3839C26.2866 44.5964 25.9421 44.5964 25.7296 44.3839L7.53719 26.1915C5.51885 24.1731 5.51885 20.9008 7.53719 18.8824L15.63 10.7897Z" fill="#555B63"/>
</svg>
