<svg width="225" height="45" viewBox="0 0 225 45" fill="none" xmlns="http://www.w3.org/2000/svg">
<path d="M216.546 14.1178H221.834L214.86 33.2777C212.868 38.7957 209.61 41.2099 204.744 40.9416V36.3433C207.465 36.3816 208.844 35.232 209.764 32.6646L201.908 14.1178H207.311L212.293 26.9932L216.546 14.1178Z" fill="#555B63"/>
<path d="M193.004 13.5813C197.066 13.5813 200.247 16.417 200.247 21.5135V33.2777H195.304V22.1266C195.304 19.5209 193.733 18.1797 191.51 18.1797C189.096 18.1797 187.295 19.5975 187.295 22.9313V33.2777H182.352V14.1178H187.295V16.2637C188.444 14.5393 190.437 13.5813 193.004 13.5813Z" fill="#555B63"/>
<path d="M172.925 14.1178H177.868V33.2777H172.925V31.0168C171.545 32.7412 169.476 33.8142 166.679 33.8142C161.582 33.8142 157.367 29.4074 157.367 23.6977C157.367 17.9881 161.582 13.5813 166.679 13.5813C169.476 13.5813 171.545 14.6543 172.925 16.3787V14.1178ZM167.599 29.1008C170.664 29.1008 172.925 26.9166 172.925 23.6977C172.925 20.4789 170.664 18.2947 167.599 18.2947C164.571 18.2947 162.31 20.4789 162.31 23.6977C162.31 26.9166 164.571 29.1008 167.599 29.1008Z" fill="#555B63"/>
<path d="M145.528 13.5813C150.663 13.5813 154.878 17.9881 154.878 23.6977C154.878 29.4074 150.663 33.8142 145.528 33.8142C142.731 33.8142 140.7 32.7795 139.32 31.0168V40.9416H134.377V14.1178H139.32V16.3787C140.7 14.616 142.731 13.5813 145.528 13.5813ZM144.608 29.1008C147.674 29.1008 149.935 26.9166 149.935 23.6977C149.935 20.4789 147.674 18.2947 144.608 18.2947C141.581 18.2947 139.32 20.4789 139.32 23.6977C139.32 26.9166 141.581 29.1008 144.608 29.1008Z" fill="#555B63"/>
<path d="M122.935 13.5813C127.303 13.5813 130.177 16.6852 130.177 21.4752V33.2777H125.234V21.8201C125.234 19.5592 124.085 18.1797 122.015 18.1797C119.831 18.1797 118.452 19.6358 118.452 22.5098V33.2777H113.508V21.8201C113.508 19.5592 112.359 18.1797 110.289 18.1797C108.182 18.1797 106.687 19.6358 106.687 22.5098V33.2777H101.744V14.1178H106.687V16.1488C107.76 14.5393 109.561 13.5813 112.014 13.5813C114.39 13.5813 116.152 14.5776 117.225 16.3403C118.413 14.616 120.329 13.5813 122.935 13.5813Z" fill="#555B63"/>
<path d="M88.1125 33.8142C82.4795 33.8142 77.9961 29.4074 77.9961 23.6977C77.9961 17.9881 82.4795 13.5813 88.1125 13.5813C93.7455 13.5813 98.2672 17.9881 98.2672 23.6977C98.2672 29.4074 93.7455 33.8142 88.1125 33.8142ZM88.1125 28.9859C91.0631 28.9859 93.324 26.8016 93.324 23.6977C93.324 20.5938 91.0631 18.4096 88.1125 18.4096C85.2002 18.4096 82.9393 20.5938 82.9393 23.6977C82.9393 26.8016 85.2002 28.9859 88.1125 28.9859Z" fill="#555B63"/>
<path d="M68.0168 33.8142C62.1922 33.8142 57.9004 29.4074 57.9004 23.6977C57.9004 17.9881 62.1922 13.5813 68.0168 13.5813C71.7721 13.5813 75.0293 15.574 76.6004 18.5246L72.3469 21.0154C71.5805 19.4442 69.9328 18.4479 67.9785 18.4479C65.0279 18.4479 62.8436 20.6322 62.8436 23.6977C62.8436 26.725 65.0279 28.9092 67.9785 28.9092C69.9711 28.9092 71.6189 27.9512 72.3853 26.3801L76.6771 28.8326C75.0293 31.8215 71.7721 33.8142 68.0168 33.8142Z" fill="#555B63"/>
<path fill-rule="evenodd" clip-rule="evenodd" d="M15.7153 3.75187C14.0619 3.75187 12.7216 5.09217 12.7216 6.74552V16.0959H3.19873C1.54538 16.0959 0.205078 17.4362 0.205078 19.0895V41.1618C0.205078 42.8152 1.54538 44.1555 3.19873 44.1555H25.0088C26.6621 44.1555 28.0024 42.8152 28.0024 41.1618V31.8114H37.5253C39.1787 31.8114 40.519 30.4711 40.519 28.8178V6.74552C40.519 5.09217 39.1787 3.75187 37.5253 3.75187H15.7153ZM28.0024 31.8114V19.0895C28.0024 17.4362 26.6621 16.0959 25.0088 16.0959H12.7216V28.8178C12.7216 30.4711 14.0619 31.8114 15.7153 31.8114H28.0024Z" fill="#555B63"/>
</svg>
