<svg width="220" height="43" viewBox="0 0 220 43" fill="none" xmlns="http://www.w3.org/2000/svg">
<path d="M205.425 22.3142H213.412C213.339 20.5353 212.177 18.7928 209.418 18.7928C206.914 18.7928 205.534 20.6806 205.425 22.3142ZM213.884 26.961L217.913 28.159C217.006 31.2447 214.174 33.8222 209.781 33.8222C204.881 33.8222 200.561 30.3008 200.561 24.2745C200.561 18.575 204.772 14.8721 209.346 14.8721C214.864 14.8721 218.167 18.3935 218.167 24.1293C218.167 24.8191 218.095 25.5451 218.095 25.6178H205.316C205.425 27.9774 207.422 29.6837 209.818 29.6837C212.069 29.6837 213.303 28.5583 213.884 26.961Z" fill="#555B63"/>
<path d="M184.443 28.3042L188.582 27.3966C188.691 28.8124 189.744 30.1193 191.849 30.1193C193.446 30.1193 194.209 29.2843 194.209 28.3405C194.209 27.5418 193.664 26.8884 192.285 26.5979L189.925 26.0534C186.476 25.291 184.915 23.2218 184.915 20.7169C184.915 17.5222 187.747 14.8721 191.595 14.8721C196.677 14.8721 198.384 18.103 198.601 20.0271L194.572 20.9347C194.427 19.8819 193.664 18.5387 191.631 18.5387C190.361 18.5387 189.344 19.301 189.344 20.3175C189.344 21.1888 189.998 21.7333 190.978 21.9149L193.519 22.4594C197.04 23.1855 198.819 25.3273 198.819 27.9411C198.819 30.8454 196.569 33.8222 191.885 33.8222C186.513 33.8222 184.661 30.3371 184.443 28.3042Z" fill="#555B63"/>
<path d="M181.524 33.2777H176.696V15.4166H181.524V33.2777ZM176.115 9.57186C176.115 7.90192 177.458 6.55872 179.092 6.55872C180.762 6.55872 182.069 7.90192 182.069 9.57186C182.069 11.1692 180.762 12.5124 179.092 12.5124C177.458 12.5124 176.115 11.1692 176.115 9.57186Z" fill="#555B63"/>
<path d="M174.026 15.344V20.2086C173.481 20.0997 173.009 20.0634 172.574 20.0634C170.105 20.0634 167.963 21.2614 167.963 25.1095V33.2777H163.135V15.4166H167.818V18.0667C168.907 15.7071 171.376 15.2714 172.9 15.2714C173.3 15.2714 173.663 15.3077 174.026 15.344Z" fill="#555B63"/>
<path d="M146.461 40.1752H141.633V15.4166H146.316V17.5948C147.115 16.2153 149.111 15.0173 151.798 15.0173C157.025 15.0173 160.038 19.0106 160.038 24.3109C160.038 29.72 156.662 33.7133 151.616 33.7133C149.148 33.7133 147.332 32.7331 146.461 31.5351V40.1752ZM155.283 24.3472C155.283 21.1888 153.322 19.3374 150.854 19.3374C148.385 19.3374 146.388 21.1888 146.388 24.3472C146.388 27.5055 148.385 29.3933 150.854 29.3933C153.322 29.3933 155.283 27.5418 155.283 24.3472Z" fill="#555B63"/>
<path d="M138.961 15.344V20.2086C138.417 20.0997 137.945 20.0634 137.509 20.0634C135.04 20.0634 132.899 21.2614 132.899 25.1095V33.2777H128.07V15.4166H132.753V18.0667C133.842 15.7071 136.311 15.2714 137.836 15.2714C138.235 15.2714 138.598 15.3077 138.961 15.344Z" fill="#555B63"/>
<path d="M112.253 22.3142H120.24C120.167 20.5353 119.006 18.7928 116.247 18.7928C113.742 18.7928 112.362 20.6806 112.253 22.3142ZM120.712 26.961L124.741 28.159C123.834 31.2447 121.002 33.8222 116.61 33.8222C111.709 33.8222 107.389 30.3008 107.389 24.2745C107.389 18.575 111.6 14.8721 116.174 14.8721C121.692 14.8721 124.996 18.3935 124.996 24.1293C124.996 24.8191 124.923 25.5451 124.923 25.6178H112.144C112.253 27.9774 114.25 29.6837 116.646 29.6837C118.897 29.6837 120.131 28.5583 120.712 26.961Z" fill="#555B63"/>
<path d="M101.939 10.0801V15.4166H105.533V19.7004H101.939V27.1788C101.939 28.7398 102.665 29.2481 104.045 29.2481C104.625 29.2481 105.279 29.1754 105.533 29.1028V33.0962C105.097 33.2777 104.226 33.5318 102.81 33.5318C99.3252 33.5318 97.147 31.4625 97.147 28.0138V19.7004H93.916V15.4166H94.8236C96.7113 15.4166 97.5826 14.1823 97.5826 12.585V10.0801H101.939Z" fill="#555B63"/>
<path d="M80.3381 23.0039V33.2777H75.5098V15.4166H80.1928V17.6311C81.2819 15.7797 83.4238 14.9447 85.3479 14.9447C89.7768 14.9447 91.8098 18.1031 91.8098 22.0238V33.2777H86.9815V22.8587C86.9815 20.8621 86.0013 19.3011 83.6779 19.3011C81.5724 19.3011 80.3381 20.9347 80.3381 23.0039Z" fill="#555B63"/>
<path d="M59.6927 22.3142H67.6794C67.6068 20.5353 66.4451 18.7928 63.686 18.7928C61.1811 18.7928 59.8016 20.6806 59.6927 22.3142ZM68.1513 26.961L72.1809 28.159C71.2733 31.2447 68.4417 33.8222 64.0491 33.8222C59.1482 33.8222 54.8281 30.3008 54.8281 24.2745C54.8281 18.575 59.0393 14.8721 63.6134 14.8721C69.1315 14.8721 72.435 18.3935 72.435 24.1293C72.435 24.8191 72.3624 25.5451 72.3624 25.6178H59.5838C59.6927 27.9774 61.6894 29.6837 64.0854 29.6837C66.3362 29.6837 67.5705 28.5583 68.1513 26.961Z" fill="#555B63"/>
<g clip-path="url(#clip0_2422_9140)">
<path fill-rule="evenodd" clip-rule="evenodd" d="M1.30715 29.2307C1.30715 30.2238 2.313 30.9007 3.23298 30.5267L15.526 25.5296C16.0533 25.3152 16.3981 24.8028 16.3981 24.2336L16.3981 18.5908C16.3981 18.0216 16.743 17.5091 17.2703 17.2948L29.6083 12.2793C30.1356 12.065 30.4805 11.5525 30.4805 10.9833L30.4805 4.36733C30.4805 3.59469 29.8541 2.96834 29.0815 2.96834L16.7885 2.96834C16.0159 2.96834 15.3895 3.59469 15.3895 4.36733L15.3895 14.8196C15.3895 15.5923 14.7632 16.2186 13.9905 16.2186L2.70615 16.2186C1.93351 16.2186 1.30716 16.845 1.30716 17.6176L1.30715 29.2307Z" fill="#555B63"/>
<path fill-rule="evenodd" clip-rule="evenodd" d="M41.1557 12.5424C41.1557 11.5493 40.1499 10.8724 39.2299 11.2464L26.9369 16.2436C26.4096 16.4579 26.0648 16.9704 26.0648 17.5396V23.1823C26.0648 23.7515 25.7199 24.264 25.1926 24.4783L12.8546 29.4938C12.3273 29.7081 11.9824 30.2206 11.9824 30.7898V37.4058C11.9824 38.1784 12.6088 38.8048 13.3814 38.8048H25.6744C26.447 38.8048 27.0734 38.1784 27.0734 37.4058V26.9535C27.0734 26.1809 27.6997 25.5545 28.4724 25.5545H39.7567C40.5294 25.5545 41.1557 24.9282 41.1557 24.1555V12.5424Z" fill="#555B63"/>
</g>
<defs>
<clipPath id="clip0_2422_9140">
<rect width="41.345" height="41.345" fill="white" transform="translate(0.558594 1.33591)"/>
</clipPath>
</defs>
</svg>
