<svg width="184" height="43" viewBox="0 0 184 43" fill="none" xmlns="http://www.w3.org/2000/svg">
<path d="M172.717 12.8692C177.685 12.8692 181.763 17.1328 181.763 22.657C181.763 28.1812 177.685 32.4448 172.717 32.4448C170.01 32.4448 168.045 31.4438 166.71 29.7384V39.3408H161.928V13.3882H166.71V15.5757C168.045 13.8702 170.01 12.8692 172.717 12.8692ZM171.827 27.8846C174.793 27.8846 176.98 25.7713 176.98 22.657C176.98 19.5427 174.793 17.4294 171.827 17.4294C168.898 17.4294 166.71 19.5427 166.71 22.657C166.71 25.7713 168.898 27.8846 171.827 27.8846Z" fill="#555B63"/>
<path d="M152.762 13.3882H157.545V31.9258H152.762V29.8496C151.65 31.518 149.722 32.4449 147.238 32.4449C143.308 32.4449 140.23 29.7013 140.23 24.7703V13.3882H145.013V24.1771C145.013 26.6982 146.533 27.9958 148.684 27.9958C151.019 27.9958 152.762 26.6241 152.762 23.3985V13.3882Z" fill="#555B63"/>
<path d="M136.866 17.9856H132.676V25.6972C132.676 27.6992 134.122 27.7363 136.866 27.588V31.9258C130.155 32.6673 127.894 30.7023 127.894 25.6972V17.9856H124.668V13.3882H127.894V9.64365L132.676 8.19772V13.3882H136.866V17.9856Z" fill="#555B63"/>
<path d="M117.324 16.5767C118.288 14.0556 120.623 13.0175 122.959 13.0175V18.3563C120.475 18.0597 117.324 19.172 117.324 23.0649V31.9258H112.541V13.3883H117.324V16.5767Z" fill="#555B63"/>
<path d="M103.42 13.3882H108.202V31.9258H103.42V29.7384C102.085 31.4067 100.083 32.4448 97.3764 32.4448C92.4454 32.4448 88.3672 28.1812 88.3672 22.657C88.3672 17.1328 92.4454 12.8692 97.3764 12.8692C100.083 12.8692 102.085 13.9073 103.42 15.5757V13.3882ZM98.2662 27.8846C101.232 27.8846 103.42 25.7713 103.42 22.657C103.42 19.5427 101.232 17.4294 98.2662 17.4294C95.3373 17.4294 93.1499 19.5427 93.1499 22.657C93.1499 25.7713 95.3373 27.8846 98.2662 27.8846Z" fill="#555B63"/>
<path d="M86.5395 17.9856H82.35V25.6972C82.35 27.6992 83.796 27.7363 86.5395 27.588V31.9258C79.8289 32.6673 77.5673 30.7023 77.5673 25.6972V17.9856H74.3418V13.3882H77.5673V9.64365L82.35 8.19772V13.3882H86.5395V17.9856Z" fill="#555B63"/>
<path d="M63.8385 18.6529C63.8385 21.3965 73.4039 19.691 73.4039 26.5128C73.4039 30.5169 69.9188 32.4448 65.9518 32.4448C62.2443 32.4448 59.5007 30.8877 58.166 28.0329L62.3184 25.6972C62.8375 27.2173 64.098 28.1071 65.9518 28.1071C67.4719 28.1071 68.51 27.588 68.51 26.5128C68.51 23.8063 58.9446 25.2893 58.9446 18.7641C58.9446 14.9825 62.1701 12.8692 65.9889 12.8692C68.9919 12.8692 71.5872 14.241 73.0331 16.7991L68.9549 19.0237C68.3987 17.8373 67.3606 17.1328 65.9889 17.1328C64.8025 17.1328 63.8385 17.6519 63.8385 18.6529Z" fill="#555B63"/>
<path d="M13.9537 24.9394L5.5777 33.4013C4.41391 34.5771 2.51176 34.5687 1.35834 33.3828C0.229889 32.2225 0.244499 30.3705 1.39111 29.2282L12.621 18.0405C13.837 16.8291 15.8031 16.8271 17.0215 18.0361L22.3344 23.3079L31.248 14.2777H25.1891C23.6125 14.2777 22.3344 12.9997 22.3344 11.4231C22.3344 9.84647 23.6125 8.56839 25.1891 8.56839H38.0896C39.8131 8.56839 41.2103 9.96556 41.2103 11.6891V24.473C41.2103 26.114 39.88 27.4442 38.2391 27.4442C36.5981 27.4442 35.2679 26.114 35.2679 24.473V18.4141L24.9306 28.7048C23.4876 30.1413 21.1613 30.1617 19.6934 28.7507L15.7059 24.9177C15.214 24.4449 14.4336 24.4546 13.9537 24.9394Z" fill="#555B63"/>
</svg>
